<?xml version="1.0" encoding="UTF-8" standalone="no"?>
<svg
   width="550"
   height="95"
   enable-background="new 0 0 600 400"
   version="1.1"
   viewBox="0 0 550 95"
   xmlSpace="preserve"
   id="svg28"
   sodipodiDocname="nimbus_logo_with_name.svg"
   inkscapeVersion="1.1.2 (b8e25be833, 2022-02-05)"
   xmlnsInkscape="http://www.inkscape.org/namespaces/inkscape"
   xmlnsSodipodi="http://sodipodi.sourceforge.net/DTD/sodipodi-0.dtd"
   xmlnsXlink="http://www.w3.org/1999/xlink"
   xmlns="http://www.w3.org/2000/svg"
   xmlnsSvg="http://www.w3.org/2000/svg"><defs
   id="defs32"><rect
     x="125.54348"
     y="0.25992439"
     width="424.45652"
     height="94.872401"
     id="rect13489" /><linearGradient
     inkscapeCollect="always"
     id="linearGradient8204"><stop
       style="stop-color:#8affff;stop-opacity:1;"
       offset="0"
       id="stop8200" /><stop
       style="stop-color:#8affff;stop-opacity:0;"
       offset="1"
       id="stop8202" /></linearGradient><linearGradient
     inkscapeCollect="always"
     xlinkHref="#linearGradient8204"
     id="linearGradient8206"
     x1="11.10372"
     y1="46.266541"
     x2="114.95962"
     y2="46.266541"
     gradientUnits="userSpaceOnUse"
     gradientTransform="matrix(1.2052247,0,0,1.2834704,3.9594277,-15.714438)" /><linearGradient
     inkscapeCollect="always"
     xlinkHref="#linearGradient8204"
     id="linearGradient16977"
     x1="148.81943"
     y1="15.518248"
     x2="148.64073"
     y2="30.088863"
     gradientUnits="userSpaceOnUse" /></defs>
<path
   id="path10000"
   d="m 67.84514,6.0077429 c -9.23239,0 -18.408698,4.3554421 -24.936987,11.8348911 -4.113086,4.712271 -7.140686,10.628481 -8.819713,17.006054 -4.035701,0.872818 -7.847164,3.129494 -10.753398,6.459084 -3.787998,4.339866 -5.993137,10.437856 -5.993137,16.575394 0,6.137593 2.205139,12.237546 5.993137,16.577413 3.78804,4.33987 9.112302,6.866272 14.469368,6.866272 h 91.64598 c 3.41943,0 6.81848,-1.611912 9.23635,-4.381938 2.41794,-2.770136 3.82487,-6.664497 3.82487,-10.582102 0,-3.917606 -1.40693,-7.809841 -3.82487,-10.579977 -2.40301,-2.75322 -5.77535,-4.360426 -9.17342,-4.380203 -0.66311,-7.097961 -3.46989,-13.929954 -7.87924,-18.981696 -5.07754,-5.817288 -12.21372,-9.204512 -19.39446,-9.204512 -1.74338,0 -3.482895,0.204799 -5.192198,0.590363 C 95.796605,21.668308 94.372164,19.664211 92.782119,17.842634 86.253834,10.363185 77.077571,6.0077429 67.84514,6.0077429 Z"
   style="color:#000000;clip-rule:nonzero;display:inline;overflow:visible;visibility:visible;opacity:1;color-interpolation:sRGB;color-interpolation-filters:linearRGB;fill:url(#linearGradient8206);fill-opacity:1;fill-rule:nonzero;stroke:none;stroke-width:0.523351px;marker:none;color-rendering:auto;image-rendering:auto;shape-rendering:auto;text-rendering:auto;enable-background:accumulate" /><text
   xmlSpace="preserve"
   id="text13487"
   style="font-style:normal;font-variant:normal;font-weight:bold;font-stretch:normal;font-size:29.3333px;line-height:1.25;font-family:Constantia;-inkscape-font-specification:'Constantia, Bold';font-variant-ligatures:normal;font-variant-caps:normal;font-variant-numeric:normal;font-variant-east-asian:normal;white-space:pre;shape-inside:url(#rect13489);fill:url(#linearGradient16977);fill-opacity:1;stroke:none"
   transform="matrix(2.9092371,0,0,3.1753318,-185.50298,-0.92964786)"><tspan
     x="125.54297"
     y="25.955049"
     id="tspan17632">Nimbus</tspan></text></svg>
