<svg width="100" height="95" viewBox="0 0 100 95" xmlns="http://www.w3.org/2000/svg">
   <defs>
     <linearGradient id="a" x1="11.104" y1="46.267" x2="114.96" y2="46.267" gradientUnits="userSpaceOnUse" gradientTransform="matrix(.94956 0 0 1.04982 -10.013 -2.105)">
      <stop stop-color="#8affff" stop-opacity="1" offset="0"/>
      <stop stop-color="#8affff" stop-opacity="0" offset="1"/>
    </linearGradient>
   </defs>
   <path stroke="none" fill="url(#a)" fill-opacity="1" d="M40.32 15.662c-7.273 0-14.503 3.563-19.646 9.68-3.24 3.855-5.626 8.694-6.949 13.911-3.18.714-6.183 2.56-8.472 5.283C2.268 48.086.53 53.074.53 58.094s1.737 10.01 4.722 13.56c2.984 3.55 7.179 5.616 11.4 5.616h72.205c2.694 0 5.372-1.318 7.277-3.584 1.905-2.266 3.013-5.451 3.013-8.656 0-3.204-1.108-6.388-3.013-8.654-1.893-2.252-4.55-3.566-7.228-3.583-.522-5.805-2.733-11.394-6.207-15.526-4-4.758-9.623-7.529-15.28-7.529-1.374 0-2.745.168-4.091.483a31.927 31.927 0 0 0-3.361-4.878c-5.143-6.118-12.373-9.68-19.647-9.68z" />
</svg>
