<svg width="550" height="95" viewBox="0 0 550 95" xmlns="http://www.w3.org/2000/svg">
  <defs>
    <linearGradient id="a" x1="11.104" y1="46.267" x2="114.96" y2="46.267" gradientUnits="userSpaceOnUse" gradientTransform="matrix(1.20522 0 0 1.28347 21.398 -11.232)">
      <stop stop-color="#8affff" stop-opacity="1" offset="0"/>
      <stop stop-color="#8affff" stop-opacity="0" offset="1"/>
    </linearGradient>
    <linearGradient id="b" x1="0.104" y1="30.267" x2="150.96" y2="80.267" gradientUnits="userSpaceOnUse" gradientTransform="matrix(1.20522 0 0 1.28347 74.316 -7.491)">
      <stop stop-color="#8affff" stop-opacity="1" offset="0"/>
      <stop stop-color="#8aeeee" stop-opacity="0" offset="1"/>
    </linearGradient>
  </defs>
  <path stroke="none" fill="url(#a)" fill-opacity="1" d="M85.284 10.49c-9.232 0-18.409 4.355-24.937 11.835-4.113 4.712-7.14 10.628-8.82 17.006-4.035.873-7.847 3.13-10.753 6.459-3.788 4.34-5.993 10.438-5.993 16.575 0 6.138 2.205 12.238 5.993 16.578 3.788 4.34 9.112 6.866 14.47 6.866h91.645c3.42 0 6.819-1.612 9.237-4.382 2.417-2.77 3.824-6.665 3.824-10.582 0-3.918-1.407-7.81-3.824-10.58-2.403-2.753-5.776-4.36-9.174-4.38-.663-7.098-3.47-13.93-7.88-18.982-5.077-5.817-12.213-9.205-19.394-9.205-1.743 0-3.482.205-5.192.59a39.021 39.021 0 0 0-4.265-5.963c-6.528-7.48-15.705-11.835-24.937-11.835z"/>
  <text font-weight="700" font-size="29.3333px" line-height="1.25" font-family="Helvetica" fill="url(#b)" fill-opacity="1" stroke="none" transform="matrix(2.90924 0 0 3.17533 -168.064 3.552)"><tspan x="125.543" y="25.955">Nimbus</tspan></text>
</svg>
