<?xml version="1.0" encoding="UTF-8" standalone="no"?>
<svg
   width="550"
   height="95"
   enable-background="new 0 0 600 400"
   version="1.1"
   viewBox="0 0 550 95"
   xmlSpace="preserve"
   id="svg18280"
   sodipodiDocname="nimbus_logo_with_name.svg"
   inkscapeVersion="1.1.2 (b8e25be833, 2022-02-05)"
   xmlnsInkscape="http://www.inkscape.org/namespaces/inkscape"
   xmlnsSodipodi="http://sodipodi.sourceforge.net/DTD/sodipodi-0.dtd"
   xmlnsXlink="http://www.w3.org/1999/xlink"
   xmlns="http://www.w3.org/2000/svg"
   xmlnsSvg="http://www.w3.org/2000/svg"><defs
   id="defs18284"><linearGradient
     inkscapeCollect="always"
     xlinkHref="#linearGradient8204"
     id="linearGradient8206"
     x1="11.10372"
     y1="46.266541"
     x2="114.95962"
     y2="46.266541"
     gradientUnits="userSpaceOnUse"
     gradientTransform="matrix(1.2052247,0,0,1.2834704,21.398228,-11.232369)" /><linearGradient
     inkscapeCollect="always"
     id="linearGradient8204"><stop
       style="stop-color:#8affff;stop-opacity:1;"
       offset="0"
       id="stop8200" /><stop
       style="stop-color:#8affff;stop-opacity:0;"
       offset="1"
       id="stop8202" /></linearGradient><linearGradient
     inkscapeCollect="always"
     xlinkHref="#linearGradient8204"
     id="linearGradient16977"
     x1="148.81943"
     y1="15.518248"
     x2="148.64073"
     y2="30.088863"
     gradientUnits="userSpaceOnUse" /><rect
     x="125.54348"
     y="0.25992438"
     width="424.45651"
     height="94.872398"
     id="rect13489" /></defs>
<path
   id="path10000"
   d="m 85.28394,10.489809 c -9.23239,0 -18.408698,4.35545 -24.936987,11.83489 -4.113086,4.71228 -7.140686,10.62849 -8.819713,17.00606 -4.035701,0.87282 -7.847164,3.12949 -10.753398,6.45908 -3.787998,4.33987 -5.993137,10.43786 -5.993137,16.5754 0,6.13759 2.205139,12.23754 5.993137,16.57741 3.78804,4.33987 9.112302,6.86627 14.469368,6.86627 h 91.64598 c 3.41943,0 6.81848,-1.61191 9.23635,-4.38194 2.41794,-2.77013 3.82487,-6.66449 3.82487,-10.5821 0,-3.91761 -1.40693,-7.80984 -3.82487,-10.57998 -2.40301,-2.75322 -5.77535,-4.36042 -9.17342,-4.3802 -0.66311,-7.09796 -3.46989,-13.92995 -7.87924,-18.9817 -5.07754,-5.81728 -12.21372,-9.20451 -19.39446,-9.20451 -1.74338,0 -3.48289,0.2048 -5.1922,0.59037 -1.25081,-2.13848 -2.67526,-4.14258 -4.2653,-5.96416 -6.52829,-7.47944 -15.704549,-11.83489 -24.93698,-11.83489 z"
   style="color:#000000;clip-rule:nonzero;display:inline;overflow:visible;visibility:visible;color-interpolation:sRGB;color-interpolation-filters:linearRGB;fill:url(#linearGradient8206);fill-opacity:1;fill-rule:nonzero;stroke:none;stroke-width:0.523351px;marker:none;color-rendering:auto;image-rendering:auto;shape-rendering:auto;text-rendering:auto;enable-background:accumulate" /><text
   xmlSpace="preserve"
   id="text13487"
   style="font-style:normal;font-variant:normal;font-weight:bold;font-stretch:normal;font-size:29.3333px;line-height:1.25;font-family:Constantia;-inkscape-font-specification:'Constantia, Bold';font-variant-ligatures:normal;font-variant-caps:normal;font-variant-numeric:normal;font-variant-east-asian:normal;white-space:pre;shape-inside:url(#rect13489);fill:url(#linearGradient16977);fill-opacity:1;stroke:none"
   transform="matrix(2.9092371,0,0,3.1753318,-168.06418,3.5524185)"><tspan
     x="125.54297"
     y="25.955049"
     id="tspan18647">Nimbus</tspan></text></svg>
